<svg width="20" height="24" viewBox="0 0 24 24" fill="none" xmlns="http://www.w3.org/2000/svg">
<path fill-rule="evenodd" clip-rule="evenodd" d="M21.123 3.27303C21.2302 3.38034 21.3024 3.51763 21.33 3.6668C21.3576 3.81596 21.3393 3.96998 21.2775 4.10853L12.792 23.2005C12.7327 23.3341 12.6357 23.4474 12.5129 23.5265C12.3901 23.6057 12.2469 23.6473 12.1008 23.6462C11.9547 23.645 11.8121 23.6013 11.6906 23.5202C11.569 23.4392 11.4738 23.3244 11.4165 23.19L8.35501 16.041L1.20451 12.978C1.0706 12.9204 0.956373 12.8251 0.875807 12.7036C0.795241 12.5821 0.751825 12.4397 0.750871 12.294C0.749916 12.1482 0.791463 12.0053 0.870431 11.8828C0.949399 11.7602 1.06236 11.6634 1.19551 11.604L20.2875 3.11853C20.4259 3.05711 20.5796 3.03899 20.7284 3.06656C20.8773 3.09414 21.0143 3.16612 21.1215 3.27303H21.123ZM3.37501 12.276L9.22051 14.781C9.39728 14.8572 9.53799 14.9985 9.61351 15.1755L12.1185 21.021L19.1145 5.28003L3.37501 12.276Z" fill="black"/>
</svg>
